<svg width="49" height="21" viewBox="0 0 49 21" fill="none" xmlns="http://www.w3.org/2000/svg">
<path fill-rule="evenodd" clip-rule="evenodd" d="M14.75 10.5C14.75 4.98606 19.2361 0.5 24.75 0.5C30.2639 0.5 34.75 4.98606 34.75 10.5C34.75 16.0139 30.2639 20.5 24.75 20.5C19.2361 20.5 14.75 16.0139 14.75 10.5ZM27.5476 11.5832L29.8014 5.94856C29.8294 5.87866 29.8363 5.80209 29.8211 5.72834C29.806 5.65459 29.7696 5.5869 29.7163 5.53367C29.6631 5.48043 29.5954 5.44399 29.5217 5.42886C29.4479 5.41373 29.3713 5.42058 29.3014 5.44856L23.6668 7.7024C23.2798 7.85716 22.9283 8.08892 22.6336 8.38363C22.3389 8.67834 22.1072 9.02985 21.9524 9.41683L19.6986 15.0514C19.6706 15.1213 19.6637 15.1979 19.6789 15.2717C19.694 15.3454 19.7304 15.4131 19.7837 15.4663C19.8369 15.5196 19.9046 15.556 19.9783 15.5711C20.0521 15.5863 20.1287 15.5794 20.1986 15.5514L25.8332 13.2976C26.2202 13.1428 26.5717 12.9111 26.8664 12.6164C27.1611 12.3217 27.3928 11.9702 27.5476 11.5832ZM25.9038 10.5C25.9038 11.1373 25.3873 11.6538 24.75 11.6538C24.1127 11.6538 23.5962 11.1373 23.5962 10.5C23.5962 9.86275 24.1127 9.34615 24.75 9.34615C25.3873 9.34615 25.9038 9.86275 25.9038 10.5Z" fill="white"/>
</svg>
