<svg width="48" height="21" viewBox="0 0 48 21" fill="none" xmlns="http://www.w3.org/2000/svg">
<path d="M24.5556 1.21096C24.2359 0.929681 23.7641 0.929682 23.4444 1.21096L13.7998 9.69577C13.198 10.2252 13.5628 11.2373 14.3555 11.2373H15.7471L16.9322 18.5356C17.0695 19.3806 17.7818 20 18.6165 20H23.1463V13.428C23.1463 13.186 23.3374 12.9899 23.5731 12.9899H24.4269C24.6626 12.9899 24.8537 13.186 24.8537 13.428V20H29.3835C30.2182 20 30.9305 19.3806 31.0678 18.5356L32.2529 11.2373H33.6445C34.4372 11.2373 34.802 10.2252 34.2002 9.69577L24.5556 1.21096Z" fill="white"/>
</svg>
